<svg id="Layer_1" data-name="Layer 1" xmlns="http://www.w3.org/2000/svg" viewBox="0 0 1008.31 154.03"><title>logo</title><path d="M456.8,402.51,405.46,257.76H443l35.88,110.31,35.87-110.31h37.53L500.93,402.51Z" transform="translate(-405.46 -249.92)" style="fill:#575757"/><path d="M576,387.46q-15.27-16.5-15.26-42.28T576,302.81q15.25-16.59,37.21-16.6t33.72,16.29V287.45h35.26V402.51H646.92v-16.7Q634.13,403.94,612.69,404T576,387.46ZM639.29,366q7.62-7.42,7.63-21t-7.63-20.93a24.53,24.53,0,0,0-35.06.1q-7.62,7.43-7.62,21t7.62,20.93a24.53,24.53,0,0,0,35.06-.1Z" transform="translate(-405.46 -249.92)" style="fill:#575757"/><path d="M720.63,387.87q-16-16.08-16-42.89t16-42.79q16-16,41.35-16,21,0,35.67,10.41T817,326.42H778.89q-4.95-10.31-16.19-10.31T746,324.05Q740.53,332,740.53,345T746,365.91q5.46,7.93,16,7.94,6.59,0,10.31-2.27t6.6-8H817A51.11,51.11,0,0,1,797.44,393Q782.6,404,762,404,736.62,404,720.63,387.87Z" transform="translate(-405.46 -249.92)" style="fill:#575757"/><path d="M843.63,387.46q-15.25-16.5-15.26-42.28t15.26-42.37q15.25-16.59,37.22-16.6t33.71,16.29V287.45h35.26V402.51H914.56v-16.7Q901.78,403.94,880.33,404T843.63,387.46ZM906.93,366q7.64-7.42,7.63-21t-7.63-20.93a24.52,24.52,0,0,0-35,.1q-7.64,7.43-7.63,21t7.63,20.93a24.52,24.52,0,0,0,35-.1Z" transform="translate(-405.46 -249.92)" style="fill:#575757"/><path d="M1091.07,302.09q0,14.64-10.52,28.25-5.57,7-16.6,11.44t-26.08,4.44H1016v56.29H980.75V257.76h57.12q25.16,0,39.18,13T1091.07,302.09ZM1016,319.41h21.86q8,0,12.68-4.74t4.64-12.48a17.59,17.59,0,0,0-4.74-12.68q-4.76-5-12.58-4.95H1016Z" transform="translate(-405.46 -249.92)" style="fill:#319bff"/><path d="M1112.3,402.51V249.92h35.26V402.51Z" transform="translate(-405.46 -249.92)" style="fill:#319bff"/><path d="M1256.64,287.45h35.26V402.51h-35.26V385.6q-10.92,18.15-34.84,18.15-19.8,0-32.07-13.2t-12.27-35.88V287.45h35.06v62.48q0,11.13,5.87,17.21t16.19,6.09q10.31,0,16.19-6.09t5.87-17.21Z" transform="translate(-405.46 -249.92)" style="fill:#319bff"/><path d="M1315,322.09q0-15.25,13-25.57t35.16-10.31q22.15,0,35.77,10.1T1413.35,324h-36.08q-.62-6-4.12-8.15t-10.52-2.16q-13.82,0-13.82,8.45,0,7.64,16.91,10.52a137.61,137.61,0,0,1,31.14,8.86,27.25,27.25,0,0,1,12.06,9.59q4.85,6.7,4.85,16.39,0,16.1-13.82,26.29T1365.1,404q-21,0-35-9.59T1314.79,366h36.09q1.44,10.51,14.84,10.52a17,17,0,0,0,10.21-2.89,8.78,8.78,0,0,0,4-7.42q0-4.55-6.7-7.22a91.29,91.29,0,0,0-16.19-4.54q-9.48-1.84-19.07-4.64a36.28,36.28,0,0,1-16.29-9.69Q1315,333.23,1315,322.09Z" transform="translate(-405.46 -249.92)" style="fill:#319bff"/></svg>